<?xml version="1.0" encoding="UTF-8"?>
<svg id="Layer_1" data-name="Layer 1" xmlns="http://www.w3.org/2000/svg" viewBox="0 0 400.97 367.35">
  <defs>
    <style>
      .cls-1 {
        fill: none;
        stroke: #000;
        stroke-linecap: round;
        stroke-linejoin: round;
        stroke-width: 2px;
      }
    </style>
  </defs>
  <path class="cls-1" d="M396.14,53.67l-23.61-10.73L31.59,48.31S.2,63.33,1.27,83.72c1.07,20.39,2.15,50.43,2.15,50.43,0,0,43.46,16.63,43.46,62.23S5.57,260.22,5.57,260.22v54.72l26.02,26.56s237.4,21.73,344.43-8.05l24.14-9.66"/>
  <path d="M37.81,71.3c15.76,0,28.58,12.82,28.58,28.58s-12.82,28.58-28.58,28.58-28.58-12.82-28.58-28.58,12.82-28.58,28.58-28.58m0-2c-16.89,0-30.58,13.69-30.58,30.58s13.69,30.58,30.58,30.58,30.58-13.69,30.58-30.58-13.69-30.58-30.58-30.58h0Z"/>
  <path d="M44.13,269.27c15.76,0,28.58,12.82,28.58,28.58s-12.82,28.58-28.58,28.58-28.58-12.82-28.58-28.58,12.82-28.58,28.58-28.58m0-2c-16.89,0-30.58,13.69-30.58,30.58s13.69,30.58,30.58,30.58,30.58-13.69,30.58-30.58-13.69-30.58-30.58-30.58h0Z"/>
  <path class="cls-1" d="M3.42,134.15s272.81-26.02,272.81,55.26c0,108.44-270.66,72.7-270.66,72.7"/>
  <path class="cls-1" d="M7.22,67.24l227.43-6.59s126.08,36.82,126.08,138.32-97.11,134.76-119.64,136.37-215.55,0-215.55,0"/>
  <ellipse class="cls-1" cx="150.75" cy="195.99" rx="76.04" ry="57.19"/>
</svg>