<?xml version="1.0" encoding="utf-8"?>
<!-- Generator: Adobe Illustrator 27.0.0, SVG Export Plug-In . SVG Version: 6.00 Build 0)  -->
<svg version="1.1" id="Layer_1" xmlns="http://www.w3.org/2000/svg" xmlns:xlink="http://www.w3.org/1999/xlink" x="0px" y="0px"
	 viewBox="0 0 154.2 183.6" style="enable-background:new 0 0 154.2 183.6;" xml:space="preserve">
<style type="text/css">
	.st0{fill:none;stroke:#000000;stroke-width:0.8114;stroke-linecap:round;stroke-linejoin:round;stroke-miterlimit:10;}
	.st1{fill:none;stroke:#000000;stroke-width:0.9493;stroke-linecap:round;stroke-linejoin:round;stroke-miterlimit:10;}
</style>
<g>
	<g>
		<g>
			<path class="st0" d="M2.7,60.5l5.5-2.2L20,59.4c0,0,90.7-8.3,90.7,25.3s-90,22.9-90,22.9l-12.5,0.7l-5.3-1.2
				c0,0,13.7-7.8,13.7-23.4S2.7,60.5,2.7,60.5z"/>
			<path class="st1" d="M30.1,83.9c1.1-18.1,13.4-20.7,30-20.7s30,3.9,30,20.7c0,15.8-13.4,21-30,21C40.8,104.9,29.3,95.9,30.1,83.9
				z"/>
			<path class="st1" d="M2.7,107.2l-1.8,3.2v12.2c0,0,1,12.2,11,17.2h142.3"/>
			<path class="st1" d="M2.7,60.9l-1.8-3.2V45.5c0,0,1-12.2,11-17.2h142.3"/>
			<path class="st1" d="M0.9,49.1c0,0,10.5-16.4,25.1-16.4s74.9,0,74.9,0s48.8,8.9,39.8,57.5s-72.3,43.7-84.1,43.8s-28.7,0-28.7,0
				s-18.2,2.7-27.1-16.7"/>
			<circle class="st1" cx="19.5" cy="121.2" r="7.4"/>
			<circle class="st1" cx="19.5" cy="46.4" r="7.4"/>
		</g>
	</g>
</g>
</svg>
