<?xml version="1.0" encoding="utf-8"?>
<!-- Generator: Adobe Illustrator 26.5.1, SVG Export Plug-In . SVG Version: 6.00 Build 0)  -->
<svg version="1.1" id="Layer_1" xmlns="http://www.w3.org/2000/svg" xmlns:xlink="http://www.w3.org/1999/xlink" x="0px" y="0px"
	 viewBox="0 0 319.89 367.35" style="enable-background:new 0 0 319.89 367.35;" xml:space="preserve">
<style type="text/css">
	.st0{fill:none;stroke:#000000;stroke-width:2;stroke-linecap:round;stroke-linejoin:round;stroke-miterlimit:10;}
	.st1{fill:none;stroke:#000000;stroke-width:1.9519;stroke-linecap:round;stroke-linejoin:round;stroke-miterlimit:10;}
</style>
<g>
	<path d="M182.73,72.53c29.66,0,57.55,11.85,78.53,33.36c20.99,21.53,32.55,50.15,32.55,80.6s-11.56,59.07-32.55,80.6
		c-20.98,21.51-48.87,33.36-78.53,33.36c-29.66,0-57.55-11.85-78.53-33.36c-20.99-21.53-32.55-50.15-32.55-80.6
		s11.56-59.07,32.55-80.6C125.18,84.38,153.07,72.53,182.73,72.53 M182.73,70.58c-62.43,0-113.03,51.9-113.03,115.91
		s50.61,115.91,113.03,115.91c62.43,0,113.03-51.9,113.03-115.91S245.16,70.58,182.73,70.58L182.73,70.58z"/>
</g>
<path class="st1" d="M0,301.11c0,0,22.78,1.18,44.77,22.58c0,0,29.06,42.61,144.51,40.25h34.56c0,0,95.03-45.55,95.03-176.72
	S217.56,5.01,217.56,5.01h-75.4c0,0-90.32,22.78-91.89,25.13S21.85,62.37,0.9,64.47"/>
<polyline class="st1" points="185.35,70.58 185.35,40.36 182.73,5.01 "/>
<polyline class="st1" points="188.5,302.41 188.5,306.22 189.28,363.94 "/>
<path class="st1" d="M262.67,40.81H156.29c0,0-100.53,24.18-100.53,155.98S177.5,338.02,194.78,337.24h64.84"/>
</svg>
