<?xml version="1.0" encoding="UTF-8"?>
<svg id="Layer_1" data-name="Layer 1" xmlns="http://www.w3.org/2000/svg" viewBox="0 0 142.04 160.28">
  <defs>
    <style>
      .cls-1 {
        stroke-width: 1.1px;
      }

      .cls-1, .cls-2 {
        fill: none;
        stroke: #000;
        stroke-linecap: round;
        stroke-linejoin: round;
      }

      .cls-2 {
        stroke-width: 1.07px;
      }
    </style>
  </defs>
  <path class="cls-1" d="M.35,134.03s16.01,3.24,20.89,14.15c2.32,5.19,59.61,10.99,59.61,10.99v-29.2s-51.87-1.74-51.87-49.31S80.84,28.83,80.84,28.83V.98S36.32,4.46,21.24,11.42c0,0-11.99,15.02-20.89,15.02"/>
  <path class="cls-1" d="M80.84,15.68s-57.29,.77-57.29,66.14c0,61.11,57.29,61.11,57.29,61.11"/>
  <ellipse class="cls-2" cx="37.58" cy="17.15" rx="11.33" ry="3.87" transform="translate(-3.26 23.39) rotate(-33.22)"/>
  <ellipse class="cls-2" cx="37.28" cy="141.55" rx="3.87" ry="11.33" transform="translate(-102.15 97.01) rotate(-57.53)"/>
  <path class="cls-1" d="M85.05,29.21s45.25,6.96,45.25,50.86-45.25,49.89-45.25,49.89v29.2h16.63s39.45-23.21,39.45-79.09S102.07,.98,102.07,.98h-17.02V29.21Z"/>
  <line class="cls-1" x1="116.99" y1="14" x2="85.05" y2="14"/>
  <line class="cls-1" x1="116.19" y1="146.75" x2="85.05" y2="146.75"/>
</svg>