<?xml version="1.0" encoding="UTF-8"?>
<svg id="Layer_1" data-name="Layer 1" xmlns="http://www.w3.org/2000/svg" viewBox="0 0 146.06 113.83">
  <defs>
    <style>
      .cls-1 {
        stroke-width: .81px;
      }

      .cls-1, .cls-2 {
        fill: none;
        stroke: #000;
        stroke-linecap: round;
        stroke-linejoin: round;
      }

      .cls-2 {
        stroke-width: .95px;
      }
    </style>
  </defs>
  <path class="cls-1" d="M2.73,33.47l5.52-2.17,11.71,1.09s90.66-8.28,90.66,25.34S20.63,80.64,20.63,80.64l-12.55,.67-5.35-1.17s13.72-7.75,13.72-23.36S2.73,33.47,2.73,33.47Z"/>
  <path class="cls-2" d="M30.06,56.89c1.1-18.07,13.43-20.74,29.99-20.74s29.99,3.9,29.99,20.74c0,15.83-13.43,20.96-29.99,20.96-19.3,0-30.73-8.94-29.99-20.96Z"/>
  <path class="cls-2" d="M2.73,80.14l-1.84,3.18v12.21s1,12.21,11.04,17.23h118.15s11.64-3.85,15.49-3.85"/>
  <path class="cls-2" d="M2.73,33.86l-1.84-3.18v-12.21S1.9,6.26,11.93,1.24h118.15s11.64,3.85,15.49,3.85"/>
  <path class="cls-2" d="M.89,22.09S11.43,5.7,25.98,5.7H100.92s48.78,8.91,39.81,57.54c-8.97,48.63-72.26,43.66-84.05,43.82-11.79,.17-28.69,0-28.69,0,0,0-18.23,2.68-27.1-16.73"/>
  <circle class="cls-2" cx="19.46" cy="94.19" r="7.36"/>
  <circle class="cls-2" cx="19.46" cy="19.36" r="7.36"/>
</svg>